# Blender v3.1.2 OBJ File: 'boss_prot4.blend'
# www.blender.org
mtllib REX.mtl
o 立方体.002_立方体.005
v 0.000000 6.933787 -0.000001
v 0.000000 8.078306 -0.000001
v 0.000000 6.933787 1.393057
v 0.000000 8.078306 1.393057
v -0.883554 6.933787 -0.000001
v -0.883554 8.078306 1.393057
v -0.883554 8.078306 -0.000001
v -0.883554 6.933787 1.393057
v 0.883554 8.078306 -0.000001
v 0.883554 6.933787 1.393057
v 0.883554 6.933787 -0.000001
v 0.883554 8.078306 1.393057
v 0.000000 9.578306 -0.000001
v 0.000000 9.578306 1.393057
v -0.883554 9.578306 1.393057
v -0.883554 9.578306 -0.000001
v 0.883554 9.578306 -0.000001
v 0.883554 9.578306 1.393057
v -3.052432 11.607409 6.268780
v -5.000000 11.607492 -6.202887
v 3.052432 11.607409 6.268780
v 5.000000 11.607492 -6.202887
v -1.860283 9.952579 -9.283381
v -1.821670 9.440514 -8.757925
v 1.821671 9.440514 -8.757925
v 1.860283 9.952579 -9.283381
v -3.052432 10.389164 8.108378
v 3.052432 10.403494 8.108378
v -4.442665 9.849092 -6.494263
v 4.442690 9.848936 -6.495514
v 4.304388 7.108986 1.246679
v 4.101428 6.933787 1.388793
v 4.101428 8.078306 1.388793
v 4.304388 7.903108 1.246679
v 4.485444 7.108986 0.219858
v 4.343330 6.933787 0.016899
v 4.485444 7.903108 0.219858
v 4.343330 8.078306 0.016899
v -4.147699 6.933787 1.169759
v -4.295996 7.061800 1.065921
v -4.147699 8.078306 1.169759
v -4.295996 7.950294 1.065921
v -4.493440 7.061800 -0.053838
v -4.389601 6.933787 -0.202135
v -4.389601 8.078306 -0.202135
v -4.493440 7.950294 -0.053838
v 4.209722 7.768255 1.793439
v 3.862425 9.542723 3.763054
v 4.470194 6.042723 0.316228
v 4.470194 9.042723 0.316228
v 6.179337 7.768255 2.140735
v 5.832040 9.542723 4.110351
v 6.439809 6.042723 0.663524
v 6.439809 9.042723 0.663524
v 5.616823 4.661237 -6.186628
v 5.385797 6.879036 -4.876418
v 7.586438 4.661237 -5.839333
v 7.355412 6.879036 -4.529122
v 4.036073 6.542723 2.778247
v 6.005689 6.542723 3.125543
v 4.122897 4.042723 2.285843
v 4.470194 4.042723 0.316228
v 6.092513 4.042723 2.633139
v 6.439809 4.042723 0.663524
v 6.287961 1.542723 -9.992844
v 8.257577 1.542723 -9.645548
v 6.368760 0.021979 -10.451077
v 8.338375 0.021979 -10.103781
v 4.859760 0.030704 1.977865
v 4.619799 3.101225 1.937909
v 4.818128 3.101225 0.813129
v 4.898625 0.030704 1.757451
v 5.744579 3.101225 2.136238
v 5.505423 0.030704 2.091712
v 5.942908 3.101225 1.011458
v 5.544288 0.030704 1.871298
v 5.214290 2.235756 -3.900416
v 7.183906 2.235756 -3.553119
v 7.183906 4.230223 -3.553119
v 5.214290 4.230223 -3.900416
v 7.008116 7.824378 -2.559507
v 5.038501 7.824378 -2.906803
v 5.255561 5.115791 -4.137813
v 7.225177 5.115791 -3.790516
v 6.439809 7.770312 0.663524
v 6.439809 6.934145 0.663524
v 6.304932 6.936233 1.428449
v 6.304869 7.769246 1.428805
v 5.741301 2.886473 -6.892582
v 7.710917 2.886473 -6.545286
v 7.918986 0.149375 -7.725309
v 5.949371 0.149375 -8.072605
v -6.161310 7.768255 1.910365
v -5.814013 9.542723 3.879980
v -6.421782 6.042723 0.433153
v -6.421782 9.042723 0.433153
v -4.191694 7.768255 1.563068
v -3.844398 9.542723 3.532684
v -4.452167 6.042723 0.085857
v -4.452167 9.042723 0.085857
v -7.568411 4.661237 -6.069702
v -7.337385 6.879036 -4.759493
v -5.598795 4.661237 -6.416999
v -5.367770 6.879036 -5.106790
v -5.987661 6.542723 2.895172
v -4.018046 6.542723 2.547876
v -6.074485 4.042723 2.402768
v -6.421782 4.042723 0.433153
v -4.104870 4.042723 2.055472
v -4.452167 4.042723 0.085857
v -8.239550 1.542723 -9.875919
v -6.269934 1.542723 -10.223216
v -8.320349 0.021979 -10.334151
v -6.350733 0.021979 -10.681448
v -5.487395 0.030704 1.861341
v -5.726552 3.101225 1.905867
v -5.924881 3.101225 0.781087
v -5.526260 0.030704 1.640927
v -4.601771 3.101225 1.707538
v -4.841733 0.030704 1.747494
v -4.800100 3.101225 0.582758
v -4.880598 0.030704 1.527080
v -7.164736 2.235756 -3.783691
v -5.195121 2.235756 -4.130988
v -5.195121 4.230223 -4.130988
v -7.164736 4.230223 -3.783691
v -5.020473 7.824378 -3.137174
v -6.990089 7.824378 -2.789878
v -7.207150 5.115791 -4.020887
v -5.237534 5.115791 -4.368184
v -6.421782 7.914515 0.433153
v -6.421782 7.081757 0.433153
v -6.287118 7.916449 1.196868
v -6.287453 7.082603 1.194970
v -7.692889 2.886473 -6.775657
v -5.723274 2.886473 -7.122952
v -5.931344 0.149375 -8.302976
v -7.900959 0.149375 -7.955680
vt 0.625000 0.937500
vt 0.375000 0.997940
vt 0.375000 0.937500
vt 0.625000 0.752820
vt 0.375000 0.812500
vt 0.375000 0.752820
vt 0.812500 0.500000
vt 0.872940 0.750000
vt 0.812500 0.750000
vt 0.586731 0.531441
vt 0.413269 0.718559
vt 0.413269 0.531441
vt 0.625000 0.252060
vt 0.375000 0.312500
vt 0.375000 0.252060
vt 0.625000 0.375000
vt 0.625000 0.437500
vt 0.625000 0.437500
vt 0.250000 0.500000
vt 0.187500 0.750000
vt 0.187500 0.500000
vt 0.625000 0.812500
vt 0.375000 0.875000
vt 0.625000 0.312500
vt 0.375000 0.375000
vt 0.597038 0.022973
vt 0.402962 0.227027
vt 0.402962 0.022973
vt 0.625000 0.875000
vt 0.625000 0.937500
vt 0.687500 0.500000
vt 0.627820 0.750000
vt 0.627820 0.500000
vt 0.375000 0.497180
vt 0.375000 0.437500
vt 0.312500 0.500000
vt 0.250000 0.750000
vt 0.750000 0.500000
vt 0.687500 0.750000
vt 0.687500 0.500000
vt 0.812500 0.500000
vt 0.750000 0.750000
vt 0.625000 0.875000
vt 0.625000 0.375000
vt 0.687500 0.750000
vt 0.438408 0.750000
vt 0.625000 1.000000
vt 0.438408 1.000000
vt 0.432659 0.500000
vt 0.414926 0.538494
vt 0.375000 0.513322
vt 0.412079 0.538045
vt 0.625000 0.750000
vt 0.875000 0.500000
vt 0.625000 0.500000
vt 0.625000 0.250000
vt 0.432659 0.250000
vt 0.414942 0.211493
vt 0.375000 0.236678
vt 0.625000 0.000000
vt 0.412093 0.211941
vt 0.438408 0.000000
vt 0.125000 0.513322
vt 0.375000 0.500000
vt 0.120576 0.545972
vt 0.147648 0.742236
vt 0.125000 0.550047
vt 0.141635 0.557810
vt 0.252679 0.742236
vt 0.375000 0.750000
vt 0.125000 0.750000
vt 0.352352 0.742236
vt 0.247764 0.557802
vt 0.379418 0.545955
vt 0.625000 0.497180
vt 0.372180 0.500000
vt 0.372180 0.750000
vt 0.586731 0.718559
vt 0.312500 0.750000
vt 0.375000 0.000000
vt 0.375000 0.250000
vt 0.625000 0.000000
vt 0.597038 0.227027
vt 0.127060 0.750000
vt 0.127060 0.500000
vt 0.625000 0.250000
vt 0.518483 0.250000
vt 0.444302 0.120751
vt 0.625000 0.500000
vt 0.875000 0.500000
vt 0.875000 0.500000
vt 0.375000 0.500000
vt 0.449285 0.500000
vt 0.375000 0.629454
vt 0.625000 0.750000
vt 0.375000 1.000000
vt 0.375000 0.750000
vt 0.375000 0.750000
vt 0.625000 0.500000
vt 0.875000 0.750000
vt 0.375000 0.250000
vt 0.625000 0.500000
vt 0.375000 0.500000
vt 0.375000 0.250000
vt 0.625000 0.250000
vt 0.375000 0.500000
vt 0.125000 0.500000
vt 0.375000 1.000000
vt 0.375000 0.750000
vt 0.375000 0.121072
vt 0.375000 0.000000
vt 0.375000 0.000000
vt 0.375000 0.500000
vt 0.375000 0.500000
vt 0.125000 0.500000
vt 0.375000 0.500000
vt 0.375000 0.500000
vt 0.375000 0.250000
vt 0.375000 0.000000
vt 0.375000 0.500000
vt 0.125000 0.500000
vt 0.125000 0.500000
vt 0.375000 0.500000
vt 0.125000 0.500000
vt 0.375000 0.250000
vt 0.375000 0.250000
vt 0.375000 0.250000
vt 0.375000 1.000000
vt 0.375000 0.750000
vt 0.194813 0.569813
vt 0.305187 0.680187
vt 0.194813 0.680187
vt 0.125000 0.500000
vt 0.125000 0.500000
vt 0.125000 0.750000
vt 0.305187 0.569813
vt 0.375000 0.250000
vt 0.375000 0.000000
vt 0.375000 0.250000
vt 0.375000 0.250000
vt 0.125000 0.500000
vt 0.125000 0.500000
vt 0.375000 0.500000
vt 0.125000 0.500000
vt 0.375000 0.500000
vt 0.518966 0.500000
vt 0.449086 0.250000
vt 0.625000 0.250000
vt 0.875000 0.500000
vt 0.444383 0.629515
vt 0.375000 0.250000
vt 0.625000 0.250000
vt 0.518483 0.250000
vt 0.444302 0.120751
vt 0.875000 0.500000
vt 0.625000 0.500000
vt 0.875000 0.500000
vt 0.375000 0.500000
vt 0.449285 0.500000
vt 0.375000 0.629454
vt 0.625000 0.750000
vt 0.375000 1.000000
vt 0.375000 0.750000
vt 0.375000 1.000000
vt 0.375000 0.750000
vt 0.625000 0.500000
vt 0.875000 0.750000
vt 0.375000 0.250000
vt 0.375000 0.500000
vt 0.375000 0.250000
vt 0.625000 0.250000
vt 0.375000 0.500000
vt 0.625000 0.500000
vt 0.125000 0.500000
vt 0.375000 0.750000
vt 0.375000 0.121072
vt 0.375000 0.000000
vt 0.375000 0.000000
vt 0.375000 0.500000
vt 0.375000 0.500000
vt 0.125000 0.500000
vt 0.375000 0.500000
vt 0.375000 0.500000
vt 0.375000 0.250000
vt 0.375000 0.000000
vt 0.125000 0.500000
vt 0.125000 0.500000
vt 0.375000 0.500000
vt 0.375000 0.500000
vt 0.125000 0.500000
vt 0.375000 0.250000
vt 0.375000 0.250000
vt 0.375000 0.250000
vt 0.375000 1.000000
vt 0.375000 0.750000
vt 0.305187 0.569813
vt 0.194813 0.680187
vt 0.194813 0.569813
vt 0.125000 0.500000
vt 0.125000 0.500000
vt 0.125000 0.750000
vt 0.305187 0.680187
vt 0.375000 0.250000
vt 0.375000 0.000000
vt 0.375000 0.250000
vt 0.375000 0.250000
vt 0.125000 0.500000
vt 0.125000 0.500000
vt 0.375000 0.500000
vt 0.125000 0.500000
vt 0.375000 0.500000
vt 0.518966 0.500000
vt 0.449086 0.250000
vt 0.625000 0.250000
vt 0.875000 0.500000
vt 0.444383 0.629515
vt 0.375000 0.250000
vt 0.625000 0.997940
vt 0.872940 0.500000
vt 0.812500 0.750000
vt 0.625000 0.812500
vt 0.625000 0.312500
vt 0.875000 0.750000
vt 0.125000 0.500000
vt 0.125000 0.741922
vt 0.358364 0.557793
vt 0.625000 0.250000
vt 0.625000 0.000000
vt 0.625000 1.000000
vt 0.125000 0.500000
vt 0.375000 1.000000
vt 0.375000 0.250000
vt 0.625000 0.000000
vt 0.625000 1.000000
vt 0.125000 0.500000
vt 0.375000 1.000000
vt 0.375000 0.250000
vn -0.0682 0.0000 0.9977
vn 0.0013 0.0000 1.0000
vn 0.0000 1.0000 0.0000
vn 0.9848 0.0000 0.1736
vn 0.0576 0.0000 -0.9983
vn 0.0000 0.0000 -1.0000
vn 0.0000 -1.0000 0.0000
vn 0.0000 0.0000 1.0000
vn -0.9848 0.0000 0.1736
vn 0.0049 0.0000 -1.0000
vn -1.0000 0.0000 0.0000
vn 1.0000 0.0000 0.0000
vn -0.0020 0.8338 0.5521
vn 0.5707 -0.6087 -0.5512
vn 0.9868 0.1357 0.0888
vn 0.0000 0.8809 -0.4733
vn -0.5709 -0.6086 -0.5511
vn -0.9869 0.1344 0.0890
vn 0.0000 -0.7162 -0.6979
vn 0.0000 -0.9841 0.1776
vn -0.0759 -0.9971 0.0000
vn 0.0023 -0.9927 0.1209
vn 0.1987 -0.9785 0.0561
vn -0.0000 -0.9991 -0.0416
vn 0.8192 0.0000 -0.5736
vn 0.6964 -0.7071 0.1228
vn 0.6964 0.7071 0.1228
vn 0.5736 0.0000 0.8192
vn -0.6964 -0.7071 0.1228
vn -0.5736 0.0000 0.8192
vn -0.6964 0.7071 0.1228
vn -0.8192 0.0000 -0.5736
vn -0.9848 0.0015 -0.1736
vn 0.0742 0.9041 -0.4208
vn -0.1152 -0.7480 0.6536
vn -0.1345 0.6322 0.7630
vn 0.0246 0.9899 -0.1393
vn 0.1489 0.5144 -0.8445
vn -0.9848 0.0000 -0.1736
vn -0.0371 -0.9770 0.2102
vn -0.1703 -0.1961 0.9657
vn -0.9851 0.0013 -0.1721
vn 0.8962 -0.4146 0.1580
vn -0.0091 -0.9986 0.0519
vn 0.1660 0.2926 -0.9417
vn 0.0682 0.9197 -0.3866
vn -0.1580 -0.4146 0.8962
vn 0.1580 -0.4146 -0.8962
vn -0.9817 -0.0790 -0.1731
vn 0.1664 -0.2859 -0.9437
vn 0.9817 -0.0790 0.1731
vn -0.1736 -0.0008 0.9848
vn -0.8962 -0.4146 -0.1580
vn -0.9848 0.0000 -0.1738
vn 0.0677 0.9209 -0.3839
vn 0.9848 0.0000 0.1738
vn -0.0675 -0.9213 0.3829
vn -0.0349 -0.9796 0.1977
vn -0.9847 0.0000 -0.1742
vn 0.0606 0.9372 -0.3436
vn -0.9853 0.0000 -0.1706
vn -0.9848 -0.0016 -0.1736
vn -0.0767 -0.8971 0.4351
vn 0.9848 0.0000 0.1735
vn -0.9848 -0.0001 -0.1735
vn 0.0702 0.9145 -0.3983
vn -0.0742 0.9041 -0.4208
vn 0.9847 0.0161 -0.1736
vn 0.1152 -0.7480 0.6536
vn 0.1345 0.6322 0.7630
vn -0.0246 0.9899 -0.1393
vn -0.1489 0.5144 -0.8445
vn 0.9848 0.0000 -0.1736
vn 0.0371 -0.9770 0.2102
vn 0.1703 -0.1961 0.9657
vn 0.9839 0.0200 -0.1775
vn 0.8962 -0.4146 -0.1580
vn 0.0091 -0.9986 0.0519
vn -0.1660 0.2926 -0.9417
vn -0.0682 0.9197 -0.3866
vn 0.1580 -0.4146 0.8962
vn -0.1580 -0.4146 -0.8962
vn -0.9817 -0.0790 0.1731
vn -0.1664 -0.2859 -0.9437
vn 0.9817 -0.0790 -0.1731
vn 0.1736 -0.0008 0.9848
vn -0.8962 -0.4146 0.1580
vn -0.9848 0.0000 0.1735
vn -0.0677 0.9209 -0.3839
vn 0.9848 0.0000 -0.1735
vn 0.0675 -0.9213 0.3829
vn 0.0349 -0.9796 0.1977
vn 0.9857 0.0000 -0.1685
vn -0.0606 0.9372 -0.3436
vn 0.9850 -0.0133 -0.1718
vn 0.9787 0.0000 -0.2053
vn 0.0767 -0.8971 0.4351
vn 0.9848 0.0000 -0.1738
vn -0.9848 -0.0001 0.1738
vn -0.0702 0.9145 -0.3983
vn 0.0000 0.8367 0.5476
vn 0.7264 -0.1175 -0.6772
vn 0.9358 -0.3209 0.1461
vn -0.7265 -0.1181 -0.6770
vn -0.9358 -0.3208 0.1461
vn -0.1961 -0.9790 0.0549
vn 0.0000 -0.9928 0.1199
vn 0.0000 -0.9925 0.1220
vn 0.0758 -0.9971 0.0000
vn 0.0000 -0.9991 -0.0417
vn -0.9855 0.0051 -0.1694
vn -0.9849 -0.0020 -0.1733
vn -0.9846 -0.0017 -0.1746
vn -0.9847 0.0016 -0.1742
vn 0.9848 0.0001 0.1735
vn -0.9848 0.0000 -0.1735
vn 0.9820 -0.0123 -0.1885
vn 0.9857 -0.0158 -0.1678
vn 0.9863 0.0174 -0.1643
vn 0.9802 0.0259 -0.1962
vn 0.9847 -0.0150 -0.1736
vn 0.9848 0.0001 -0.1738
vn -0.9848 0.0000 0.1738
usemtl None
s off
f 6/1/1 39/2/1 8/3/1
f 33/4/2 10/5/2 32/6/2
f 7/7/3 41/8/3 6/9/3
f 37/10/4 31/11/4 35/12/4
f 45/13/5 5/14/5 44/15/5
f 2/16/6 17/17/6 9/18/6
f 1/19/7 8/20/7 5/21/7
f 12/22/8 3/23/8 10/5/8
f 7/24/6 1/25/6 5/14/6
f 42/26/9 43/27/9 40/28/9
f 4/29/8 15/30/8 6/1/8
f 4/29/8 8/3/8 3/23/8
f 9/31/3 33/32/3 38/33/3
f 9/18/10 36/34/10 11/35/10
f 11/36/7 3/37/7 1/19/7
f 2/16/6 11/35/6 1/25/6
f 13/38/3 18/39/3 17/40/3
f 16/41/3 14/42/3 13/38/3
f 12/22/8 14/43/8 4/29/8
f 6/9/11 16/41/11 7/7/11
f 7/24/6 13/44/6 2/16/6
f 9/31/12 18/39/12 12/45/12
f 28/46/13 19/47/13 27/48/13
f 26/49/14 30/50/14 25/51/14
f 30/52/15 21/53/15 28/46/15
f 20/54/3 21/53/3 22/55/3
f 20/56/16 26/49/16 23/57/16
f 29/58/17 23/57/17 24/59/17
f 19/60/18 29/61/18 27/62/18
f 24/63/19 26/64/19 25/51/19
f 25/51/20 29/65/20 24/63/20
f 15/66/21 29/67/21 16/68/21
f 14/69/22 28/70/22 27/71/22
f 18/72/23 30/52/23 28/46/23
f 13/73/24 29/65/24 30/74/24
f 35/12/25 38/75/25 37/10/25
f 36/76/26 31/11/26 32/77/26
f 33/32/27 37/10/27 38/33/27
f 32/6/28 34/78/28 33/4/28
f 11/36/7 32/77/7 10/79/7
f 39/80/29 43/27/29 44/81/29
f 41/82/30 40/28/30 39/80/30
f 41/82/31 46/83/31 42/26/31
f 44/15/32 46/83/32 45/13/32
f 5/21/7 39/84/7 44/85/7
f 50/86/33 37/87/33 34/88/33
f 81/89/34 56/90/34 82/91/34
f 53/92/4 86/93/4 87/94/4
f 52/95/35 47/96/35 51/97/35
f 47/96/36 60/98/36 51/97/36
f 54/99/37 48/100/37 52/95/37
f 55/101/38 58/102/38 57/103/38
f 83/104/39 56/105/39 55/101/39
f 84/106/4 58/102/4 81/89/4
f 83/107/40 57/103/40 84/106/40
f 59/108/41 63/109/41 60/98/41
f 31/110/42 59/111/42 47/112/42
f 87/94/4 60/98/4 53/92/4
f 63/109/43 75/113/43 64/114/43
f 92/115/44 68/116/44 91/117/44
f 53/92/4 63/109/4 64/114/4
f 49/118/39 61/119/39 59/111/39
f 66/120/45 67/121/45 65/122/45
f 91/117/4 66/120/4 90/123/4
f 90/123/46 65/122/46 89/124/46
f 92/125/39 65/126/39 67/127/39
f 61/128/47 73/129/47 63/109/47
f 72/130/7 74/131/7 69/132/7
f 64/114/48 71/133/48 62/134/48
f 72/130/49 70/135/49 71/133/49
f 72/130/50 75/113/50 76/136/50
f 76/136/51 73/129/51 74/131/51
f 74/131/52 70/135/52 69/132/52
f 62/137/53 70/138/53 61/119/53
f 62/137/54 80/139/54 77/140/54
f 53/92/55 80/141/55 49/142/55
f 64/114/56 79/143/56 53/92/56
f 64/114/57 77/144/57 78/145/57
f 49/142/58 84/106/58 53/92/58
f 81/89/4 85/146/4 86/93/4
f 35/147/59 37/87/59 82/148/59
f 54/99/60 82/91/60 50/149/60
f 88/150/4 85/146/4 54/99/4
f 34/88/61 31/110/61 47/112/61
f 31/110/62 35/147/62 49/118/62
f 87/94/4 85/146/4 88/150/4
f 88/150/4 51/97/4 87/94/4
f 77/144/63 91/117/63 78/145/63
f 78/145/64 90/123/64 79/143/64
f 77/140/65 89/151/65 92/125/65
f 80/141/66 90/123/66 89/124/66
f 96/152/9 131/153/9 133/154/9
f 128/155/67 104/156/67 102/157/67
f 99/158/68 43/159/68 40/160/68
f 98/161/69 93/162/69 97/163/69
f 97/163/70 105/164/70 106/165/70
f 100/166/71 94/167/71 98/161/71
f 101/168/72 104/156/72 103/169/72
f 129/170/9 102/171/9 101/168/9
f 130/172/73 104/156/73 127/173/73
f 129/174/74 103/169/74 130/172/74
f 105/164/75 109/175/75 106/165/75
f 134/176/9 105/177/9 93/178/9
f 40/160/76 106/165/76 99/158/76
f 109/175/77 121/179/77 110/180/77
f 138/181/78 114/182/78 137/183/78
f 99/158/73 109/175/73 110/180/73
f 95/184/9 107/185/9 105/177/9
f 111/186/79 114/182/79 113/187/79
f 137/183/73 112/188/73 136/189/73
f 136/189/80 111/186/80 135/190/80
f 138/191/9 111/192/9 113/193/9
f 107/194/81 119/195/81 109/175/81
f 122/196/7 115/197/7 118/198/7
f 110/180/82 117/199/82 108/200/82
f 118/198/83 116/201/83 117/199/83
f 118/198/84 121/179/84 122/196/84
f 122/196/85 119/195/85 120/202/85
f 120/202/86 116/201/86 115/197/86
f 108/203/87 116/204/87 107/185/87
f 108/203/88 126/205/88 123/206/88
f 99/158/89 126/207/89 95/208/89
f 110/180/90 125/209/90 99/158/90
f 110/180/91 123/210/91 124/211/91
f 95/208/92 130/172/92 99/158/92
f 127/173/93 46/212/93 43/159/93
f 132/213/9 131/153/9 128/214/9
f 100/166/94 128/155/94 96/215/94
f 42/216/95 100/166/95 98/161/95
f 131/153/9 134/176/9 133/154/9
f 133/154/9 134/176/9 93/178/9
f 134/176/9 132/213/9 95/184/9
f 42/216/96 97/163/96 40/160/96
f 123/210/97 137/183/97 124/211/97
f 124/211/98 136/189/98 125/209/98
f 123/206/99 135/217/99 138/191/99
f 126/207/100 136/189/100 135/190/100
f 6/1/1 41/218/1 39/2/1
f 33/4/2 12/22/2 10/5/2
f 7/7/3 45/219/3 41/8/3
f 37/10/4 34/78/4 31/11/4
f 45/13/5 7/24/5 5/14/5
f 2/16/6 13/44/6 17/17/6
f 1/19/7 3/37/7 8/20/7
f 12/22/8 4/29/8 3/23/8
f 7/24/6 2/16/6 1/25/6
f 42/26/9 46/83/9 43/27/9
f 4/29/8 14/43/8 15/30/8
f 4/29/8 6/1/8 8/3/8
f 9/31/3 12/45/3 33/32/3
f 9/18/10 38/75/10 36/34/10
f 11/36/7 10/79/7 3/37/7
f 2/16/6 9/18/6 11/35/6
f 13/38/3 14/42/3 18/39/3
f 16/41/3 15/220/3 14/42/3
f 12/22/8 18/221/8 14/43/8
f 6/9/11 15/220/11 16/41/11
f 7/24/6 16/222/6 13/44/6
f 9/31/12 17/40/12 18/39/12
f 28/46/101 21/53/101 19/47/101
f 26/49/102 22/55/102 30/50/102
f 30/52/103 22/55/103 21/53/103
f 20/54/3 19/223/3 21/53/3
f 20/56/16 22/55/16 26/49/16
f 29/58/104 20/56/104 23/57/104
f 19/60/105 20/56/105 29/61/105
f 24/63/19 23/224/19 26/64/19
f 25/51/20 30/74/20 29/65/20
f 15/66/106 27/225/106 29/67/106
f 27/71/107 15/66/107 14/69/107
f 14/69/108 18/72/108 28/70/108
f 18/72/109 17/226/109 30/52/109
f 30/74/24 17/226/24 13/73/24
f 13/73/110 16/68/110 29/65/110
f 35/12/25 36/34/25 38/75/25
f 36/76/26 35/12/26 31/11/26
f 33/32/27 34/78/27 37/10/27
f 32/6/28 31/11/28 34/78/28
f 11/36/7 36/76/7 32/77/7
f 39/80/29 40/28/29 43/27/29
f 41/82/30 42/26/30 40/28/30
f 41/82/31 45/227/31 46/83/31
f 44/15/32 43/27/32 46/83/32
f 5/21/7 8/20/7 39/84/7
f 34/88/111 47/112/111 50/86/111
f 47/112/39 48/228/39 50/86/39
f 81/89/34 58/102/34 56/90/34
f 52/95/35 48/229/35 47/96/35
f 47/96/36 59/108/36 60/98/36
f 54/99/37 50/149/37 48/100/37
f 55/101/38 56/90/38 58/102/38
f 83/104/39 82/148/39 56/105/39
f 84/106/4 57/103/4 58/102/4
f 83/107/40 55/230/40 57/103/40
f 59/108/41 61/128/41 63/109/41
f 31/110/112 49/118/112 59/111/112
f 87/94/4 51/97/4 60/98/4
f 63/109/43 73/129/43 75/113/43
f 92/115/44 67/121/44 68/116/44
f 53/92/4 60/98/4 63/109/4
f 49/118/39 62/137/39 61/119/39
f 66/120/45 68/116/45 67/121/45
f 91/117/4 68/116/4 66/120/4
f 90/123/46 66/120/46 65/122/46
f 92/125/39 89/151/39 65/126/39
f 61/128/47 70/231/47 73/129/47
f 72/130/7 76/136/7 74/131/7
f 64/114/48 75/113/48 71/133/48
f 72/130/49 69/132/49 70/135/49
f 72/130/50 71/133/50 75/113/50
f 76/136/51 75/113/51 73/129/51
f 74/131/52 73/129/52 70/135/52
f 62/137/53 71/232/53 70/138/53
f 62/137/54 49/118/54 80/139/54
f 53/92/55 79/143/55 80/141/55
f 64/114/56 78/145/56 79/143/56
f 64/114/57 62/134/57 77/144/57
f 49/142/58 83/107/58 84/106/58
f 81/89/4 54/99/4 85/146/4
f 86/93/4 53/92/4 81/89/4
f 53/92/4 84/106/4 81/89/4
f 83/104/39 49/118/39 82/148/39
f 49/118/113 35/147/113 82/148/113
f 37/87/114 50/86/114 82/148/114
f 54/99/60 81/89/60 82/91/60
f 52/95/4 51/97/4 54/99/4
f 51/97/4 88/150/4 54/99/4
f 87/94/4 86/93/4 85/146/4
f 77/144/63 92/115/63 91/117/63
f 78/145/115 91/117/115 90/123/115
f 77/140/116 80/139/116 89/151/116
f 80/141/66 79/143/66 90/123/66
f 133/154/9 93/178/9 96/152/9
f 93/178/9 94/233/9 96/152/9
f 128/155/67 127/173/67 104/156/67
f 98/161/69 94/234/69 93/162/69
f 97/163/70 93/162/70 105/164/70
f 100/166/71 96/215/71 94/167/71
f 101/168/72 102/157/72 104/156/72
f 129/170/9 128/214/9 102/171/9
f 130/172/73 103/169/73 104/156/73
f 129/174/74 101/235/74 103/169/74
f 105/164/75 107/194/75 109/175/75
f 134/176/9 95/184/9 105/177/9
f 40/160/117 97/163/117 106/165/117
f 109/175/77 119/195/77 121/179/77
f 138/181/78 113/187/78 114/182/78
f 99/158/73 106/165/73 109/175/73
f 95/184/9 108/203/9 107/185/9
f 111/186/79 112/188/79 114/182/79
f 137/183/73 114/182/73 112/188/73
f 136/189/80 112/188/80 111/186/80
f 138/191/9 135/217/9 111/192/9
f 107/194/81 116/236/81 119/195/81
f 122/196/7 120/202/7 115/197/7
f 110/180/82 121/179/82 117/199/82
f 118/198/83 115/197/83 116/201/83
f 118/198/84 117/199/84 121/179/84
f 122/196/85 121/179/85 119/195/85
f 120/202/86 119/195/86 116/201/86
f 108/203/87 117/237/87 116/204/87
f 108/203/88 95/184/88 126/205/88
f 99/158/89 125/209/89 126/207/89
f 110/180/90 124/211/90 125/209/90
f 110/180/91 108/200/91 123/210/91
f 95/208/92 129/174/92 130/172/92
f 127/173/118 100/166/118 46/212/118
f 43/159/119 99/158/119 127/173/119
f 99/158/73 130/172/73 127/173/73
f 129/170/9 95/184/9 128/214/9
f 95/184/9 132/213/9 128/214/9
f 131/153/9 96/152/9 128/214/9
f 100/166/94 127/173/94 128/155/94
f 98/161/120 97/163/120 42/216/120
f 42/216/121 46/212/121 100/166/121
f 131/153/9 132/213/9 134/176/9
f 123/210/97 138/181/97 137/183/97
f 124/211/122 137/183/122 136/189/122
f 123/206/123 126/205/123 135/217/123
f 126/207/100 125/209/100 136/189/100
